<?xml version="1.0" standalone="no"?>
<!DOCTYPE svg PUBLIC "-//W3C//DTD SVG 20010904//EN"
 "http://www.w3.org/TR/2001/REC-SVG-20010904/DTD/svg10.dtd">
<svg version="1.0" xmlns="http://www.w3.org/2000/svg"
 width="16.000000pt" height="16.000000pt" viewBox="0 0 16.000000 16.000000"
 preserveAspectRatio="xMidYMid meet">
<metadata>
Created by potrace 1.16, written by Peter Selinger 2001-2019
</metadata>
<g transform="translate(0.000000,16.000000) scale(0.003125,-0.003125)"
fill="#000000" stroke="none">
<path d="M3982 4659 c-59 -29 -85 -70 -90 -140 -6 -78 18 -116 125 -204 113
-93 275 -263 363 -380 181 -240 299 -482 395 -806 20 -70 32 -93 60 -118 83
-72 201 -60 260 26 35 52 33 118 -6 252 -152 513 -450 964 -864 1305 -108 90
-163 104 -243 65z"/>
<path d="M919 4601 c-24 -15 -100 -81 -168 -146 -348 -334 -611 -779 -725
-1232 -42 -165 -32 -228 46 -286 41 -30 124 -34 175 -8 54 27 77 67 109 187
111 425 349 825 656 1106 145 132 156 145 169 191 42 157 -125 277 -262 188z"/>
<path d="M2306 4619 c-362 -47 -721 -195 -1017 -419 -107 -82 -296 -271 -377
-377 -224 -295 -365 -632 -417 -993 -17 -123 -20 -417 -4 -540 100 -810 660
-1492 1430 -1744 354 -115 693 -135 1065 -61 300 60 602 199 854 394 109 84
298 273 378 378 222 292 352 596 414 963 27 163 29 461 4 625 -70 454 -268
848 -591 1171 -332 333 -744 539 -1200 599 -127 16 -423 18 -539 4z m489 -430
c363 -49 700 -221 961 -490 174 -180 284 -354 368 -581 73 -197 100 -351 100
-578 0 -451 -159 -839 -478 -1169 -260 -268 -598 -437 -969 -486 -889 -115
-1703 501 -1853 1401 -21 128 -22 386 -1 509 39 232 114 434 231 621 349 562
985 861 1641 773z"/>
<path d="M2415 3786 c-47 -20 -93 -79 -100 -128 -3 -24 -5 -316 -3 -650 l3
-607 34 -35 c19 -19 55 -46 80 -58 l46 -23 530 0 c486 0 533 1 562 17 118 65
124 234 9 299 -40 24 -46 24 -386 29 l-345 5 -45 27 c-60 35 -94 72 -122 133
-23 49 -23 58 -28 477 -5 411 -6 428 -26 455 -44 60 -142 88 -209 59z"/>
</g>
</svg>
